/* XPM */
static char * char_idle_f1_xpm[] = {
"50 50 41 1",
" 	c None",
".	c #7B697E",
"+	c #7C6A7E",
"@	c #CBFFD8",
"#	c #7E6D7F",
"$	c #7B687E",
"%	c #70D38B",
"&	c #7D6B7E",
"*	c #867680",
"=	c #857580",
"-	c #77677E",
";	c #80707F",
">	c #82727F",
",	c #76657E",
"'	c #73637E",
")	c #7C697E",
"!	c #181C28",
"~	c #0C0D14",
"{	c #7D6C7E",
"]	c #7F6E7F",
"^	c #7C6B7E",
"/	c #81717F",
"(	c #7B6A7E",
"_	c #81707F",
":	c #78687E",
"<	c #806F7F",
"[	c #77667E",
"}	c #837280",
"|	c #73627E",
"1	c #76667E",
"2	c #75637E",
"3	c #78677E",
"4	c #79687E",
"5	c #74647E",
"6	c #7D6C7F",
"7	c #7A687E",
"8	c #406D6B",
"9	c #847480",
"0	c #837380",
"a	c #74637E",
"b	c #857480",
"..................................................",
"..................................................",
"..................................................",
".........................+........................",
".....................@@@@@@@......................",
"...................@@@@@@@@#@.....................",
"..................@@@@@@@@@@.@....................",
"..................@@@@@@@@@@.@.............$..$#..",
".................@@@@@@%%@@@@.............&*#.=$..",
".................@@@@@%%%%@@@..............-;&>$..",
".................@@@@@%%%%@@@................,')..",
".................@@@@@@%%@@@@.....................",
"..................@@@@@@@@@@......................",
"..................@@@@@@@@@@......................",
"...................@@@@@@@@.......................",
".....................@@@@.........................",
"...................!......!.......................",
"...................!!....!!.......................",
"...................!!!!!!!!~~~~...................",
"...................!!!!!!!!!...~..................",
"..................!!!!!!!!!!!...~.................",
".................!!!!!!!!!!!!...~.................",
"...............~~!!!!!!!!!!!!!.~..................",
"..............~..!!!!!!!!!!!!!~...................",
".............~..!!!!!!!!!!!!!!..$$.{..............",
".............~..!!!!!!!!!!!!!!..]*{.;$#...........",
".............~..!!!!!!!!!!!!!!!..';^.;'...........",
"...+;&$/.$....~.!!!!!!!!!!!!!!!.(_:<.:[...........",
"....><+:.}$....~!!!!!!!!!!!!!!!.+|12.)............",
"...+]3;4/5+.....!!!!!!!!!!!!!!!...................",
"...$46()|7......!!!!!!!!!!!!!!........$...........",
"....$.$.........!!!!!!!!!!!!!.....................",
"................!!!!!!!!~!!!!.....................",
"................!!!!!!!~~~!!!.....................",
"..................!!!!~~~~~!!.....................",
"..................!!!!~~~~~&!.....................",
"...................!!~..^~.}......................",
".................88!8~888~888..$..................",
"..............8888888~888~888888..................",
"..............888888888888888888..................",
".................888888888888.....................",
"............................&&....................",
"............................./&.$$................",
".............................+(]}9................",
"............$................7._[.................",
"............0{.&&.............&a+.................",
"............,;+<..................................",
"............4:.,....................$#..........$.",
".............)......................=$.........$b.",
"...................................&<[..........1;"};
