/* XPM */
static char * enemy_f1_xpm[] = {
"50 50 56 1",
" 	c None",
".	c #76697D",
"+	c #766A7E",
"@	c #75687D",
"#	c #7D727F",
"$	c #7A6E7E",
"%	c #81767F",
"&	c #796C7E",
"*	c #6D627D",
"=	c #796D7E",
"-	c #776B7E",
";	c #7B707E",
">	c #6D637D",
",	c #7B707F",
"'	c #72667D",
")	c #796E7E",
"!	c #7E737F",
"~	c #7A6F7E",
"{	c #72677D",
"]	c #74687D",
"^	c #7C707F",
"/	c #73687D",
"(	c #70657D",
"_	c #766A7D",
":	c #6C617D",
"<	c #6B617D",
"[	c #80757F",
"}	c #73677D",
"|	c #71677E",
"1	c #6F637D",
"2	c #776A7E",
"3	c #75697E",
"4	c #75697D",
"5	c #141013",
"6	c #726579",
"7	c #060608",
"8	c #733142",
"9	c #73172D",
"0	c #FA6A0A",
"a	c #786C7E",
"b	c #766B7E",
"c	c #7C717F",
"d	c #3B1725",
"e	c #72687E",
"f	c #73687E",
"g	c #71667D",
"h	c #70667D",
"i	c #6E647D",
"j	c #776C7E",
"k	c #76687D",
"l	c #73667D",
"m	c #73657D",
"n	c #7F747F",
"o	c #6E637D",
"p	c #73677B",
"q	c #80747F",
"..................................................",
"..................................................",
"..................................................",
".........................+........................",
"......................@@@#........................",
"......................$%&*.=-.....................",
".....................$;>,')!......................",
"......................)~{]^/...............@..@=..",
"......................($_:<_..............-%=.[@..",
".......................}!(.................|,-#@..",
"........................12..................3(>...",
"............................................4.....",
"..................................................",
".....................5........................6...",
"..............5.......55..........................",
"...............57.......55........................",
".................77......55.......................",
"............5.....77.8888899......................",
".............55..777788889899.....................",
"...............57..7778899999.....................",
"..............7....87797777799....................",
"...................88970777079....................",
"...................89870777079....................",
"....................9977777779....................",
".....................99777779...@@.a..............",
"......................8899799...$%a.,@=...........",
".....................89999999....>;b4;>...........",
"..._,-@c.@..........8999dd7d9...+^e~.fg...........",
"....#~+f.#@........8999dd777d9.._*h1..............",
"...+${;/ci_........999ddd77759....................",
"...@fj+.*]..........9ddd7775d.........k...........",
"....@.@...............77..55......................",
"..................................................",
"..................................................",
".......................@..........................",
"......................@#$+.-=.....................",
"........................ba.#......................",
"........................]]=b...@..................",
"..........................lm..kk..................",
"...........................kkkk...................",
"..................................................",
"............................--....................",
".............................c-.@@................",
"............................4++$#n................",
"............@................]3^g.................",
"............!a.--.............-o_.................",
"............(,p~..................................",
"............/f.(....................@=..........@.",
"....................................[@.........@q.",
"...................................-~g..........h,"};
