/* XPM */
static char * enemy_f2_xpm[] = {
"50 50 55 1",
" 	c None",
".	c #76697D",
"+	c #766A7E",
"@	c #75687D",
"#	c #7D727F",
"$	c #7A6E7E",
"%	c #81767F",
"&	c #796C7E",
"*	c #6D627D",
"=	c #796D7E",
"-	c #776B7E",
";	c #7B707E",
">	c #6D637D",
",	c #7B707F",
"'	c #72667D",
")	c #796E7E",
"!	c #7E737F",
"~	c #7A6F7E",
"{	c #72677D",
"]	c #74687D",
"^	c #7C707F",
"/	c #73687D",
"(	c #70657D",
"_	c #766A7D",
":	c #6C617D",
"<	c #6B617D",
"[	c #80757F",
"}	c #73677D",
"|	c #71677E",
"1	c #6F637D",
"2	c #776A7E",
"3	c #75697E",
"4	c #75697D",
"5	c #141013",
"6	c #060608",
"7	c #733142",
"8	c #73172D",
"9	c #FA6A0A",
"0	c #786C7E",
"a	c #766B7E",
"b	c #7C717F",
"c	c #72687E",
"d	c #73687E",
"e	c #71667D",
"f	c #70667D",
"g	c #6E647D",
"h	c #776C7E",
"i	c #8B93AF",
"j	c #3B1725",
"k	c #76687D",
"l	c #73667D",
"m	c #73657D",
"n	c #7F747F",
"o	c #6E637D",
"p	c #80747F",
"..................................................",
"..................................................",
"..................................................",
".........................+........................",
"......................@@@#........................",
"......................$%&*.=-.....................",
".....................$;>,')!......................",
"......................)~{]^/...............@..@=..",
"......................($_:<_..............-%=.[@..",
".......................}!(.................|,-#@..",
"........................12..................3(>...",
"............................................4.....",
"..................................................",
"..................................................",
"..................................................",
"....................5.............................",
"................6....55...........................",
".................66....55.........................",
"...................66...55........................",
"..............6.....66.7775.......................",
"...............66..6666777788.....................",
".................66..666778788....................",
"................6...77667866668...................",
"....................77888696669...................",
"....................77888696669.@@.0..............",
"....................87788666666.$%0.,@=...........",
".....................8888866668..>;a4;>...........",
"..._,-@b.@............78888868..+^c~.de...........",
"....#~+d.#@............7788888.._*f1..............",
"...+${;/bg_...........78888888....................",
"...@dh+.*]......ii...7888jj668........k...........",
"....@.@.........iii.7888jj66668...................",
".................iii888.66..558...................",
"..................................................",
".......................@..........................",
"......................@#$+.-=.....................",
"........................a0.#......................",
"........................]]=a...@..................",
"..........................lm..kk..................",
"...........................kkkk...................",
"..................................................",
"............................--....................",
".............................b-.@@................",
"............................4++$#n................",
"............@................]3^e.................",
"............!0.--.............-o_.................",
"............(,+~..................................",
"............/d.(....................@=..........@.",
"....................................[@.........@p.",
"...................................-~e..........f,"};
