/* XPM */
static char * exit_closed_xpm[] = {
"50 50 417 2",
"  	c None",
". 	c #78697E",
"+ 	c #221B29",
"@ 	c #030106",
"# 	c #6C5A77",
"$ 	c #7C6C87",
"% 	c #615568",
"& 	c #695B73",
"* 	c #20191A",
"= 	c #5C4553",
"- 	c #070408",
"; 	c #72617E",
"> 	c #6E5C76",
", 	c #21132E",
"' 	c #09040A",
") 	c #100819",
"! 	c #70607E",
"~ 	c #040207",
"{ 	c #09050A",
"] 	c #CB399F",
"^ 	c #C7389B",
"/ 	c #B1328A",
"( 	c #060208",
"_ 	c #5D4F68",
": 	c #0A060F",
"< 	c #240E24",
"[ 	c #CF3AA1",
"} 	c #C33798",
"| 	c #CE3AA1",
"1 	c #26162F",
"2 	c #736185",
"3 	c #7A668F",
"4 	c #2A2230",
"5 	c #060309",
"6 	c #C13697",
"7 	c #D53CA6",
"8 	c #C23798",
"9 	c #C6389A",
"0 	c #431A3A",
"a 	c #7E6D8B",
"b 	c #675773",
"c 	c #080310",
"d 	c #C9389C",
"e 	c #CA399D",
"f 	c #050207",
"g 	c #08040C",
"h 	c #7C6696",
"i 	c #796293",
"j 	c #D13BA3",
"k 	c #CC3A9F",
"l 	c #BB3592",
"m 	c #BE3694",
"n 	c #C6389B",
"o 	c #C03D9C",
"p 	c #2D1935",
"q 	c #2B212F",
"r 	c #81718F",
"s 	c #6F5E7E",
"t 	c #0D0511",
"u 	c #CB399E",
"v 	c #CA399E",
"w 	c #C43799",
"x 	c #C03696",
"y 	c #CF3AA2",
"z 	c #050308",
"A 	c #120618",
"B 	c #BF3695",
"C 	c #B8348F",
"D 	c #C23797",
"E 	c #0D0611",
"F 	c #07030F",
"G 	c #76687E",
"H 	c #1E1824",
"I 	c #C53799",
"J 	c #CD3AA0",
"K 	c #CE3AA0",
"L 	c #D33CA5",
"M 	c #D83DA8",
"N 	c #862468",
"O 	c #2B1932",
"P 	c #BD3594",
"Q 	c #B4338C",
"R 	c #D03BA2",
"S 	c #BC3593",
"T 	c #201B24",
"U 	c #5E4F6D",
"V 	c #795286",
"W 	c #CC399F",
"X 	c #C9399D",
"Y 	c #D43CA5",
"Z 	c #06020B",
"` 	c #0C050D",
" .	c #7D428C",
"..	c #6E3678",
"+.	c #C5389A",
"@.	c #B83490",
"#.	c #D23BA3",
"$.	c #2A1B29",
"%.	c #0A0510",
"&.	c #74647E",
"*.	c #77687E",
"=.	c #7B6D7F",
"-.	c #D63CA7",
";.	c #25142B",
">.	c #311830",
",.	c #873E8F",
"'.	c #240C32",
").	c #260C30",
"!.	c #B83894",
"~.	c #1B1018",
"{.	c #241E2A",
"].	c #796B7E",
"^.	c #837680",
"/.	c #827580",
"(.	c #6E6073",
"_.	c #6A5C73",
":.	c #BD3593",
"<.	c #DF3FAE",
"[.	c #0E0512",
"}.	c #0C0511",
"|.	c #9A5299",
"1.	c #D33BA4",
"2.	c #9E4D94",
"3.	c #702F7F",
"4.	c #381A2E",
"5.	c #7A6C81",
"6.	c #76687F",
"7.	c #7C6E83",
"8.	c #73677E",
"9.	c #7D707F",
"0.	c #7F727F",
"a.	c #07050B",
"b.	c #796A7F",
"c.	c #C13696",
"d.	c #D73DA8",
"e.	c #210C38",
"f.	c #400D31",
"g.	c #D93DA9",
"h.	c #DA3DAA",
"i.	c #1A0329",
"j.	c #C8389C",
"k.	c #BA3491",
"l.	c #67547D",
"m.	c #6D5C7D",
"n.	c #040206",
"o.	c #534858",
"p.	c #77697E",
"q.	c #72657E",
"r.	c #70637E",
"s.	c #79697E",
"t.	c #6A5D70",
"u.	c #150E18",
"v.	c #31213A",
"w.	c #251630",
"x.	c #362438",
"y.	c #DE3EAD",
"z.	c #D73DA7",
"A.	c #622D6D",
"B.	c #4A3346",
"C.	c #180D13",
"D.	c #040107",
"E.	c #0C0608",
"F.	c #73637E",
"G.	c #665389",
"H.	c #000000",
"I.	c #351D3E",
"J.	c #10021A",
"K.	c #4A2A54",
"L.	c #2F1938",
"M.	c #D03AA2",
"N.	c #724077",
"O.	c #2A102B",
"P.	c #5B3571",
"Q.	c #B6338E",
"R.	c #30133B",
"S.	c #8D449C",
"T.	c #D23BA4",
"U.	c #080210",
"V.	c #0D0513",
"W.	c #D33BA5",
"X.	c #531F64",
"Y.	c #632A6F",
"Z.	c #873581",
"`.	c #71617F",
" +	c #776880",
".+	c #26241D",
"++	c #B5338D",
"@+	c #351940",
"#+	c #8B377C",
"$+	c #4D113C",
"%+	c #893288",
"&+	c #3D1634",
"*+	c #74657E",
"=+	c #6E5A86",
"-+	c #150B23",
";+	c #3A273D",
">+	c #080311",
",+	c #0C0414",
"'+	c #DD3EAC",
")+	c #340928",
"!+	c #D73CA7",
"~+	c #9B3A8B",
"{+	c #380A2B",
"]+	c #612A6D",
"^+	c #833386",
"/+	c #6D2E71",
"(+	c #090509",
"_+	c #5D457F",
":+	c #705D87",
"<+	c #633898",
"[+	c #352238",
"}+	c #0C0411",
"|+	c #952974",
"1+	c #803D89",
"2+	c #311132",
"3+	c #1C0A2C",
"4+	c #873586",
"5+	c #DB3EAB",
"6+	c #191025",
"7+	c #241C2E",
"8+	c #170B24",
"9+	c #2F173C",
"0+	c #25162D",
"a+	c #251230",
"b+	c #711B58",
"c+	c #501746",
"d+	c #2B0E30",
"e+	c #762F81",
"f+	c #10060B",
"g+	c #08040F",
"h+	c #796B80",
"i+	c #08050B",
"j+	c #050107",
"k+	c #13052B",
"l+	c #310725",
"m+	c #2C0C30",
"n+	c #4A2951",
"o+	c #82738C",
"p+	c #734676",
"q+	c #180930",
"r+	c #711E5F",
"s+	c #210A28",
"t+	c #261E21",
"u+	c #27202D",
"v+	c #6E5C7D",
"w+	c #2D202C",
"x+	c #503D67",
"y+	c #0A0315",
"z+	c #0E0315",
"A+	c #625668",
"B+	c #4F3C67",
"C+	c #251242",
"D+	c #2E1441",
"E+	c #524266",
"F+	c #120418",
"G+	c #0D0216",
"H+	c #796A80",
"I+	c #544C52",
"J+	c #05010A",
"K+	c #5C4E67",
"L+	c #58276C",
"M+	c #6B1952",
"N+	c #633F78",
"O+	c #6C1A53",
"P+	c #28113D",
"Q+	c #796A7E",
"R+	c #58476C",
"S+	c #0F0411",
"T+	c #090312",
"U+	c #29232D",
"V+	c #6F5B85",
"W+	c #362033",
"X+	c #1C0C2D",
"Y+	c #321C40",
"Z+	c #7C6E7F",
"`+	c #6E5E81",
" @	c #110E07",
".@	c #0D060A",
"+@	c #331C3F",
"@@	c #E03FAE",
"#@	c #362752",
"$@	c #796B7F",
"%@	c #6A5482",
"&@	c #675382",
"*@	c #79697F",
"=@	c #1B091B",
"-@	c #2B2232",
";@	c #2D2435",
">@	c #77687D",
",@	c #1E1319",
"'@	c #0B020F",
")@	c #2D0D31",
"!@	c #280D33",
"~@	c #7D6D8A",
"{@	c #5D5143",
"]@	c #400C30",
"^@	c #280C30",
"/@	c #22072D",
"(@	c #D53CA5",
"_@	c #1B0D2B",
":@	c #271E33",
"<@	c #504352",
"[@	c #10060F",
"}@	c #280D31",
"|@	c #1C042B",
"1@	c #250F39",
"2@	c #240C2C",
"3@	c #24172D",
"4@	c #7A6989",
"5@	c #290D33",
"6@	c #1D052D",
"7@	c #2F0828",
"8@	c #0D0311",
"9@	c #83457C",
"0@	c #8E7DA0",
"a@	c #7C6D85",
"b@	c #8C6093",
"c@	c #922871",
"d@	c #41305D",
"e@	c #766880",
"f@	c #7C6483",
"g@	c #0E050D",
"h@	c #12010B",
"i@	c #0A020F",
"j@	c #0D0411",
"k@	c #340929",
"l@	c #79487E",
"m@	c #745C84",
"n@	c #786881",
"o@	c #78697F",
"p@	c #786685",
"q@	c #685A6E",
"r@	c #6F4072",
"s@	c #A74A8A",
"t@	c #4E414A",
"u@	c #796886",
"v@	c #826895",
"w@	c #372030",
"x@	c #2B112E",
"y@	c #0E0510",
"z@	c #3F1439",
"A@	c #B1438F",
"B@	c #0E080F",
"C@	c #2B232E",
"D@	c #705E7E",
"E@	c #010101",
"F@	c #05010B",
"G@	c #5F1E50",
"H@	c #09050C",
"I@	c #0D0A0E",
"J@	c #877492",
"K@	c #74667A",
"L@	c #201D14",
"M@	c #44184D",
"N@	c #1C0724",
"O@	c #310E2E",
"P@	c #83708B",
"Q@	c #371A3E",
"R@	c #2C0B2C",
"S@	c #08010A",
"T@	c #311232",
"U@	c #2C1430",
"V@	c #584159",
"W@	c #766780",
"X@	c #08050A",
"Y@	c #321534",
"Z@	c #89448A",
"`@	c #1C0415",
" #	c #150113",
".#	c #943A79",
"+#	c #570035",
"@#	c #7D438A",
"##	c #180619",
"$#	c #7C627D",
"%#	c #78687F",
"&#	c #241E26",
"*#	c #180915",
"=#	c #130208",
"-#	c #0B040A",
";#	c #9A407B",
">#	c #AB3186",
",#	c #0D0410",
"'#	c #260E2A",
")#	c #110116",
"!#	c #050406",
"~#	c #1F1729",
"{#	c #82718F",
"]#	c #807380",
"^#	c #7A6C7E",
"/#	c #73637F",
"(#	c #281E2F",
"_#	c #040202",
":#	c #833F73",
"<#	c #452544",
"[#	c #120412",
"}#	c #0B030E",
"|#	c #0B0611",
"1#	c #786884",
"2#	c #73657E",
"3#	c #7C6F7F",
"4#	c #796883",
"5#	c #23192F",
"6#	c #22182C",
"7#	c #0C0502",
"8#	c #614663",
"9#	c #2C222E",
"0#	c #171219",
"a#	c #63556D",
"b#	c #75687E",
"c#	c #070509",
"d#	c #1E152B",
"e#	c #231B2F",
"f#	c #251E2E",
"g#	c #76677E",
"h#	c #73647E",
"i#	c #827480",
"j#	c #73667E",
". . . . . . . . . . . . . . . . . . + @ # $ . . . . . . . . % @ & . . . . . . . . . . . . . . . . . ",
". . . . . . . . . . . . . . . . . @ * = @ - ; . . . . . > , @ ' ) ! . . . . . . . . . . . . . . . . ",
". . . . . . . . . . . . . . . . ~ { ] ^ / ( @ _ . . . : @ < [ } | 1 2 3 . . . . . . . . . . . . . . ",
". . . . . . . . . . . . . . . 4 5 6 7 8 / 9 0 @ @ a b c 7 ^ d e } f g h . . . . . . . . . . . . . . ",
". . . . . . . . . . . . . . i @ ^ j k l m } n d @ @ @ 9 o n 6 m ^ 8 p q r . . . . . . . . . . . . . ",
". . . . . . . . . . . . . s ~ t u k } v w x 7 y @ z A m 8 B m C x D m E F G . . . . . . . . . . . . ",
". . . . . . . . . . . . . H @ } ] e I J K L M @ / N @ O P Q Q } R x S B @ T . . . . . . . . . . . . ",
". . . . . . . . . . . . U @ V B W ^ X y Y Y Z ` u u  .@ ..C m +.@.@.#.7 $.%.&.. . . . *.. . *.=.. . ",
". . . . . . . . . . . . @ 8 C X R w w w -.L ;.>.#.#.,.'.).!.6 P @.w 7 j @.~.{.. . . ].^.=.. /.*.. . ",
". . . . . . . . (._.. . @ C :.<.w B B | Y [.}.|.^ 1.B 2.@ 3.B C Q R J P / 4.@ 5.. 6.7.8.9.].0.*.. . ",
". . . . . . . . a.@ . b.@ / c.K 8 8 I d.u e.f./ ^ g.h./ f.i./ Q j.1.} / k.k.@ l.m.n.o.. p.q.r.s.. . ",
". . . . . . . t.u.@ v.w.x.@.d 6 w m 7 Y P @ | } y.z.@.g.l @ A.c.} w Q @.J S @ B.C.D.E.F.p.. . . . . ",
". . . . . . . G.H./ I.J.K.P P @.k.y -.k.@ L.| w M.R @.^ P N.@ 9 ^ k.@.x 7 :.@ @ O.k @ s . . . . . . ",
". . . . . . . H.P./ Q.R.@ S./ @.} T.P U.V./ / @.e k C l W./ @ X.m @.m ^ B Y.@ Z.j.B @ `.. . . . . . ",
". . . . .  +.+H.m B j.++B @ @+@.7 ^ / @ / P } j.[ C m Q.y C #+$+C k.j.S m @ %+J j.c.&+@ F.*+. . . . ",
". . . . . =+-+;+k.} m m S / >+,+'+w )+@ / u u w B C m m !+w ~+{+]+9 w ^+@ /+@.L W j.P @ (+_+. . . . ",
". . . . . :+H./ m m k./ / / <+@ } [+}+/ w ^ k.w @.Q c.w -.P / |+@ 1+/ 2+3+4+w 5+[ | / / @ 6+. . . . ",
". . . . . 7+8+B S P 8 w / / / 9+0+@ / / j m P M.C l l @.k.^ 8 / a+b+c+d+e+w J d J u Q B f+g+. . . . ",
". . . . h+i+j+/ l m 8 } Q C d B @ k+/ j 7 Q c.B k.k C 8 ^ 8 P ^ B b+l+m+W R +.v v @.P P n+@ . . . . ",
". . . . o+H.p+} l k.Q C @.j.6 / @ q+/ ^ ^ m B w J w k.P @./ 1.y C r+s+/ l R ^ R P 8 ^ 8 P t+u+. . . ",
". . . . v+H.B B l m @.P B :.w @.@ / w ^ Q.B k.n [ w v @.C ^ u P l l @ j.@.P [ D m I x P u w+@ . . . ",
". . . . x+H.C m l Q C m 8 [ C / @ / u u / / } 9 R j.| 8 Q.j.^ / l l y+z+/ X W @.B w C ^ u C @ A+. . ",
". . . . B+H.m C / @.m S J 6 / / @ / w P / Q w D y W.9 j.m C 8 w ] C C+D+S -.} m } x / C ^ e @ . . . ",
". . . . E+H./ / m x x ^ I / / F+G+/ | g.8 P P } k :.k.P k.Q l } 8 C B @ w m k.} 8 P B w [ D @ . . . ",
". . b.H+I+H./ C x m k.w k./ B @ J+/ @.P B B / W ^ @.l Q / / m I m @.B @ l m S c.B m I ^ y B @ . . . ",
". . 5.7.K+H.C P @./ P [ w l c.@ L+u u P ^ } / X S m l Q / / w X @.P ^ M+k.B k.8 8 m m u k / @ . . . ",
". . . . . H.N+C / / } X S w x @ / J k.k.} w W B C m l / / C d c.J m I O+P+@.B P m P } [ j./ @ . . . ",
". . . Q+9.R+H./ / k.w B k.I d @ C w Q.C J e x m C m l / P B @.Q l x j.S+T+@.Q C B ] X y j.@ U+. . . ",
". . . . 0.V+H.W+/ w x B P ^ X+Y+@.X w j.K w w k.Q c.l Q @.C C @.d J u / @ @.k.k.} g.Y m / @ A+. . . ",
". . . Q+Z+`+ @.@/ @.P P P e X++@/ m B ^ #.| X x / c.:.@./ C C / / w k./ @ @.l u h.@@u S #@@ . . . . ",
". . . *.G $@%@H.C C m C B w B @ / B C d } c.m C / } c./ / @.c./ k.k S / @ / / [ g.j Q / @ &@. . . . ",
". . . . *.. *@H.=@k.m k.+.^ P @ / / B T.j.x m C B B Q / Q } } / } d.:./ @ / 8 #.7 ^ / -@;@. . . . . ",
". . . . . . . >@,@m k.B I ^ P '@S+/ j.} l m P m k.+.Q / C x l C j.D / )@!@/ P Y W m / @ ~@. . . . . ",
". . . . . . . . {@H.]@^ 8 } k.^@/@C 8 W S m I C B w / / 8 ^ C J (@B / @ f./ M j k +._@:@. . . . . . ",
". . . . . . . . . <@[@/ P 8 C }@|@C R j / +.D P 6 w C / X :.Q.J M.w 1@2@/ j.1.w v 3@@ 4@. . . . . . ",
". . . . . . . . . >@H.]@/ C C 5@6@d 1.X Q X Q.B k.^ w @.m +.j.] 8 ^ 7@8@@.J n J 9@@ 0@a@. . . . . . ",
". . . . . . . . . . b@H.c@C C P @ Q.B B 9 B P P B P ] S X @.w k.@.c.@ P ] k X ] @ d@e@. . . . . . . ",
". . . . . . . . . . f@g@h@C C P i@j@/ } } Q w @.Q w w e j.B } C m k@'@S J j.w l@@ m@n@. . . . . . . ",
". . . . . . . . o@. p@q@]@C C P ^ @ r@w C P 8 P :.B l v k.X 9 k.m @ Q.d ] } s@@ t@u@. . . . . . . . ",
". . . . . . . . . . . *@v@w@C P ^ P x@y@C m k.P 8 8 ] w / j.S B z@@ 8 D 9 A@B@C@D@. . . . . . . . . ",
". . . . . . . . . . . . u@E@h@m n 8 P F@G@w k.} x ] 8 / 6 -.u 8 f.f.n 9 @.H@I@J@. . . . . . . . . . ",
". . . . . . . . . . . . . K@L@H.} } k.M@@ / B !+T.C / / } u u N@/ / B O@@ @ P@. . . . . . . . . . . ",
". . . . . . . . . . . . . . . H.Q@j.d / @ / / C m w B j u / R@S@/ / T@U@V@W@. . . . . . . . . . . . ",
". . . . . . . . . . . . . . . . X@H.Y@Z@`@ #/ n c.m | d .#+#@ @###@ @ $#%#. . . . . . . . . . . . . ",
". . . . . . . . . . . . *.. . o@. &#*#H.=#@ -#;#Q k ^ >#/ ,#'#)#!#~#{#H+. . . . . . . . . . . . . . ",
". . . . . . . . . . . . ]#^#. ].].*./#(#_#H.@ @ :#P / <#[#}#@ |#1#o@. . . . . . . . . . . . . . . . ",
". . . . . . . . . . . . 2#9.Q+3#. . . b.4#5#E@6#7#8#9#0#@ @ a#. . . . . . . . . . . . . . . . . . . ",
". . . . . . . . . . . . G b#. 2#. . . . . . . *.c#d#e#f#*+. . . . . . . *.=.. . . . . . . . . . *.. ",
". . . . . . . . . . . . . s.. . . . . . . . . . . g#h#. . . . . . . . . /.*.. . . . . . . . . *.i#. ",
". . . . . . . . . . . . . . . . . . . . . . . . . . . . . . . . . . . ].3#j#. . . . . . . . . . j#9."};
