/* XPM */
static char * run_f2_xpm[] = {
"50 50 44 1",
" 	c None",
".	c #76697D",
"+	c #766A7E",
"@	c #75687D",
"#	c #7D727F",
"$	c #CBFFD8",
"%	c #6D627D",
"&	c #796D7E",
"*	c #776B7E",
"=	c #7E737F",
"-	c #70D38B",
";	c #81767F",
">	c #80757F",
",	c #71677E",
"'	c #7B707F",
")	c #75697E",
"!	c #70657D",
"~	c #6D637D",
"{	c #75697D",
"]	c #181C28",
"^	c #0C0D14",
"/	c #786C7E",
"(	c #7B707E",
"_	c #766B7E",
":	c #766A7D",
"<	c #7C717F",
"[	c #7C707F",
"}	c #72687E",
"|	c #7A6F7E",
"1	c #73687E",
"2	c #71667D",
"3	c #70667D",
"4	c #6F637D",
"5	c #7A6E7E",
"6	c #72677D",
"7	c #73687D",
"8	c #6E647D",
"9	c #776C7E",
"0	c #74687D",
"a	c #76687D",
"b	c #406D6B",
"c	c #7F747F",
"d	c #6E637D",
"e	c #80747F",
"..................................................",
"..................................................",
"..................................................",
".........................+........................",
"......................@@@#........................",
".....................$$$$%.&*.....................",
"...................$$$$$$$$=......................",
"..................$$$$--$$$$...............@..@&..",
"..................$$$$---$$$..............*;&.>@..",
".................$$$$$$----$$..............,'*#@..",
".................$$$$$$$----$...............)!~...",
".................$$$$$$$----$....$..........{.....",
".................$$$$$$$$--$$.....$...............",
"..................$$$$$$$$$$......................",
"..................$$$$$$$$$$......................",
"...................$$$$$$$$.......................",
".....................$$$$.........................",
"...................]......].......................",
"...................]]....]]......$................",
"..............^^^^^]]]]]]]]......$................",
".............^....]]]]]]]$$.......................",
".............^...]]]]]]]]]]]......................",
"..............^.@]]]]]]]]]]]].....................",
"..............^.]]]]]]]]]]]]]^^^..................",
"...............^]]]]]]]]]]]]]@..^@./..............",
"................]]]]]]]]]]]]]]@@^;/.'@&...........",
"................]]]]]]]]]]]]]]@@^~(_{(~...........",
"...:'*@<.@.....]]]]]]]]]]]]]]]@^+[}|.12...........",
"....#|+1.#@....]]]]]]]]]]]]]]]@^:%34..............",
"...+56(7<8:....]]]]]]]]]]]]]]]^@..................",
"...@19+.%0.....]]]]]]]]]]]]]]]........a...........",
"....@.@.........]]]]]]]]]]]]]]....................",
".................]]]]]]]]]]]]]....................",
".................]]]]^]]]]]]]]....................",
".................]]]^^^]]]]]]]....................",
".................]]^^^^^]]]]&.....................",
".................].^^^^^]]]]......................",
"....................^...^]]_...@..................",
".................bbb^bbb^b]bb.aa..................",
"..............bbbbbb^bbbbbbbbbbb..................",
"..............bbbbbbbbbbbbbbbbbb..................",
".................bbbbbbbbbbbb*....................",
".............................<*.@@................",
"............................{++5#c................",
"............@................0)[2.................",
"............=/.**.............*d:.................",
"............!'+|..................................",
"............71.!....................@&..........@.",
"....................................>@.........@e.",
"...................................*|2..........3'"};
