/* XPM */
static char * run_f1_xpm[] = {
"50 50 44 1",
" 	c None",
".	c #76697D",
"+	c #766A7E",
"@	c #CBFFD8",
"#	c #776B7E",
"$	c #70D38B",
"%	c #75687D",
"&	c #796D7E",
"*	c #81767F",
"=	c #80757F",
"-	c #71677E",
";	c #7B707F",
">	c #7D727F",
",	c #75697E",
"'	c #70657D",
")	c #6D637D",
"!	c #75697D",
"~	c #181C28",
"{	c #0C0D14",
"]	c #786C7E",
"^	c #7A6E7E",
"/	c #7B707E",
"(	c #766B7E",
"_	c #766A7D",
":	c #7C717F",
"<	c #7C707F",
"[	c #72687E",
"}	c #7A6F7E",
"|	c #73687E",
"1	c #71667D",
"2	c #6D627D",
"3	c #70667D",
"4	c #6F637D",
"5	c #72677D",
"6	c #73687D",
"7	c #6E647D",
"8	c #776C7E",
"9	c #74687D",
"0	c #76687D",
"a	c #406D6B",
"b	c #7F747F",
"c	c #7E737F",
"d	c #6E637D",
"e	c #80747F",
"..................................................",
"..................................................",
"..................................................",
".........................+........................",
"......................@@@@........................",
"....................@@@@@@@@#.....................",
"...................@@@@@@$$@@.....................",
"...................@@@@@$$$$@..............%..%&..",
"..................@@@@@@$$$$@@............#*&.=%..",
"..................@@@@@@@$$@@@.............-;#>%..",
"..................@@@@@@@@@@@@..............,')...",
"..................@@@@@@@@@@@@..............!.....",
"...................@@@@@@@@@@.....................",
"...................@@@@@@@@@@.....................",
"....................@@@@@@@@......................",
"......................@@@@........................",
"..................................................",
"....................~......~......................",
"....................~~....~~......................",
"....................~~~~~~~~{{{{..................",
"....................~~~~~~~~~...{.................",
"...................~~~~~~~~~~~..{.................",
"..................~~~~~~~~~~~~%..{................",
"................{{~~~~~~~~~~~~~..{................",
"...............{.%~~~~~~~~~~~~~{{%.]..............",
"...............{%~~~~~~~~~~~~~~.^*].;%&...........",
"..............{.%~~~~~~~~~~~~~~..)/(!/)...........",
"..._;#%:.%....{%%~~~~~~~~~~~~~~~+<[}.|1...........",
"....>}+|.>%...{%%~~~~~~~~~~~~~~~_234..............",
"...+^5/6:7_....{{~~~~~~~~~~~~~~~..................",
"...%|8+.29.......~~~~~~~~~~~~~~~......0...........",
"....%.%..........~~~~~~~~~~~~~~...................",
".................~~~~~~~~~~~~~....................",
".................~~~~~~~~{~~~~....................",
".................~~~~~~~{{{~~~....................",
"...................~~~~{{{{{~~....................",
"...................~~~~{{{{{.~....................",
"....................~~..9{&(...%..................",
"..................aa~aaaa{aaaa00..................",
"...............aaaaaaaaaa{aaaaaaa.................",
"...............aaaaaaaaaaaaaaaaaa.................",
"..................aaaaaaaaaaaa....................",
".............................:#.%%................",
"............................!++^>b................",
"............%................9,<1.................",
"............c].##.............#d_.................",
"............';+}..................................",
"............6|.'....................%&..........%.",
"....................................=%.........%e.",
"...................................#}1..........3;"};
